<svg xmlns="http://www.w3.org/2000/svg" width="1.4em" height="1.4em" fill="currentColor" viewBox="0 0 24 24">
    <path fillRule="evenodd" d="M2.6 2a.6.6 0 0 0-.6.6v4.178a.6.6 0 0 0 .6.6h4.2a.6.6 0 0 0 .6-.6V2.6a.6.6 0 0 0-.6-.6H2.6Zm.6 4.178V3.2h3v2.978h-3ZM9.299 2.6a.6.6 0 0 1 .6-.6h4.2a.6.6 0 0 1 .6.6v4.178a.6.6 0 0 1-.6.6h-4.2a.6.6 0 0 1-.6-.6V2.6Zm1.2.6v2.978h3V3.2h-3Zm6.103-.6a.6.6 0 0 1 .6-.6h4.2a.6.6 0 0 1 .6.6v4.178a.6.6 0 0 1-.6.6h-4.2a.6.6 0 0 1-.6-.6V2.6Zm1.2.6v2.978h3V3.2h-3ZM9.299 9.91a.6.6 0 0 1 .6-.6h4.2a.6.6 0 0 1 .6.6v4.178a.6.6 0 0 1-.6.6h-4.2a.6.6 0 0 1-.6-.6V9.912Zm1.2.6v2.979h3V10.51h-3Zm6.703-1.2a.6.6 0 0 0-.6.6v4.178a.6.6 0 0 0 .6.6h4.2a.6.6 0 0 0 .6-.6V9.912a.6.6 0 0 0-.6-.6h-4.2Zm.6 4.178v-2.977h3v2.978h-3ZM2 9.91a.6.6 0 0 1 .6-.6h4.2a.6.6 0 0 1 .6.6v4.178a.6.6 0 0 1-.6.6H2.6a.6.6 0 0 1-.6-.6V9.912Zm1.2.6v2.979h3V10.51h-3Zm6.699 6.111a.6.6 0 0 0-.6.6V21.4a.6.6 0 0 0 .6.6h4.2a.6.6 0 0 0 .6-.6v-4.18a.6.6 0 0 0-.6-.6h-4.2Zm.6 4.178V17.82h3v2.98h-3Zm6.103-3.578a.6.6 0 0 1 .6-.6h4.2a.6.6 0 0 1 .6.6V21.4a.6.6 0 0 1-.6.6h-4.2a.6.6 0 0 1-.6-.6v-4.18Zm1.2.6V20.8h3v-2.98h-3ZM2.6 16.621a.6.6 0 0 0-.6.6V21.4a.6.6 0 0 0 .6.6h4.2a.6.6 0 0 0 .6-.6v-4.18a.6.6 0 0 0-.6-.6H2.6Zm.6 4.178V17.82h3v2.98h-3Z" clipRule="evenodd"></path>
</svg>