<svg id="themeToggle" xmlns="http://www.w3.org/2000/svg" width="1.4em" height="1.4em" fill="currentColor" viewBox="0 0 24 24">
    <path fillRule="evenodd" d="M20.113 16.184a9.527 9.527 0 0 1-3.379.616c-5.275 0-9.55-4.278-9.55-9.553 0-1.18.215-2.31.607-3.356a8.991 8.991 0 0 0-4.427 7.752c0 4.968 4.025 8.994 8.988 8.994a8.984 8.984 0 0 0 7.76-4.453Zm.331-1.635c.779-.397 1.824.206 1.493 1.014C20.392 19.34 16.683 22 12.352 22 6.635 22 2 17.363 2 11.643a10.36 10.36 0 0 1 6.408-9.58c.807-.332 1.413.71 1.019 1.489a8.159 8.159 0 0 0-.879 3.695 8.188 8.188 0 0 0 11.896 7.302Zm-2.327-9.134a.227.227 0 0 1 .432 0l.732 2.226c.02.062.068.113.129.138l2.05.853a.227.227 0 0 1 0 .42l-2.05.853a.227.227 0 0 0-.129.139l-.732 2.225a.227.227 0 0 1-.432 0l-.732-2.225a.227.227 0 0 0-.128-.139l-2.05-.853a.227.227 0 0 1 0-.42l2.05-.853a.227.227 0 0 0 .128-.138l.732-2.226ZM14.161 3.66a.227.227 0 0 0-.427 0l-.288.779a.227.227 0 0 1-.134.134l-.78.289a.227.227 0 0 0 0 .426l.78.288a.227.227 0 0 1 .134.134l.288.78a.227.227 0 0 0 .427 0l.288-.78a.227.227 0 0 1 .134-.134l.78-.288a.227.227 0 0 0 0-.426l-.78-.289a.227.227 0 0 1-.134-.134l-.288-.78Z" clipRule="evenodd"></path>
</svg>