<svg xmlns="http://www.w3.org/2000/svg" width="1.4em" height="1.4em" fill="currentColor" viewBox="0 0 24 24">
  <path fill-rule="evenodd" d="M12 16.625a4.625 4.625 0 1 0 0-9.25 4.625 4.625 0 0 0 0 9.25ZM12 18a6 6 0 1 0 0-12 6 6 0 0 0 0 12Zm-.23-17c.38 0 .688.308.688.688v2.245a.688.688 0 0 1-1.375 0V1.688c0-.38.308-.688.688-.688Zm0 18.38c.38 0 .688.308.688.687v2.245a.687.687 0 1 1-1.375 0v-2.245c0-.38.308-.687.688-.687ZM23 11.77c0 .38-.308.688-.688.688h-2.245a.687.687 0 1 1 0-1.375h2.245c.38 0 .688.308.688.688Zm-18.38 0c0 .38-.308.688-.687.688H1.688a.687.687 0 1 1 0-1.375h2.245c.38 0 .687.308.687.688Zm15.2-7.534a.687.687 0 0 1 0 .972l-1.588 1.588a.688.688 0 0 1-.972-.972l1.587-1.588a.688.688 0 0 1 .973 0ZM6.422 17.07a.687.687 0 0 1 0 .972l-1.588 1.587a.687.687 0 1 1-.972-.972l1.587-1.587a.687.687 0 0 1 .973 0Zm13.798 2.75a.688.688 0 0 1-.973 0l-1.587-1.588a.687.687 0 1 1 .972-.972l1.588 1.587a.688.688 0 0 1 0 .973ZM6.93 6.986a.688.688 0 0 1-.972 0L4.371 5.4a.687.687 0 1 1 .972-.973L6.93 6.014a.688.688 0 0 1 0 .972Z" clip-rule="evenodd"></path>
</svg>