<svg xmlns="http://www.w3.org/2000/svg" width="1.4em" height="1.4em" fill="currentColor" viewBox="0 0 24 24">
    <path fillRule="evenodd" d="M3.604 3.203a.401.401 0 0 0-.401.4V16.69c0 .221.18.4.4.4h2.133a.602.602 0 0 1 .601.602v2.696c0 .355.398.524.647.313l4.102-3.468a.601.601 0 0 1 .389-.142h8.918c.222 0 .401-.18.401-.401V3.604a.401.401 0 0 0-.4-.401H3.604ZM2 3.603C2 2.719 2.718 2 3.604 2h16.79c.885 0 1.603.718 1.603 1.604v13.085c0 .886-.718 1.604-1.604 1.604h-8.698l-3.934 3.326c-1.05.887-2.628.123-2.628-1.232v-2.094h-1.53A1.604 1.604 0 0 1 2 16.689V3.604Z" clipRule="evenodd"></path>
</svg>