 <svg xmlns="http://www.w3.org/2000/svg" height="70" viewBox="0 0 746 525">
    <path fill="var(--light-body-text-color)"  d="M596.5 241h-90.2c-.3-11.5-1.1-22.8-2.2-34h-30.2c1.2 11.1 2 22.5 2.3 34H386v-34h-30v34h-90.2c.4-11.5 1.1-22.9 2.3-34h-30.2c-1.1 11.1-1.8 22.5-2.2 34h-90.2c.8-11.5 2.4-22.9 4.8-34h-30.7c-3.1 16-4.7 32.4-4.7 49 0 68.4 26.6 132.7 75 181 48.4 48.4 112.6 75 181 75s132.7-26.6 181-75c48.4-48.4 75-112.6 75-181 0-16.6-1.6-33-4.7-49h-30.7c2.6 11.1 4.2 22.5 5 34zM171.1 361.5c-14.7-27.8-23.4-58.5-25.5-90.4h90.2c.9 31.6 4.8 62.2 11.5 90.4h-76.2zm40.1 54.3c-7.6-7.6-14.6-15.7-21.1-24.3h65.4c4.8 14.8 10.4 28.8 16.9 41.6 6.8 13.5 14.2 25.5 22.2 35.7-31-11.1-59.4-29-83.4-53zm88 3.9c-4.4-8.8-8.4-18.2-12-28.2H356v87.9c-20.7-6.9-40.8-27.8-56.8-59.7zm56.8-58.2h-77.9c-7.1-27.8-11.3-58.5-12.3-90.4H356v90.4zm30-90.5h90.2c-1 32-5.2 62.6-12.3 90.4H386V271zm0 208.4v-87.9h68.7c-3.6 9.9-7.6 19.4-12 28.2-15.9 31.9-36 52.8-56.7 59.7zm144.8-63.6c-24 24-52.4 41.9-83.4 53 8-10.2 15.5-22.1 22.2-35.7 6.4-12.8 12-26.8 16.9-41.6h65.4c-6.5 8.6-13.5 16.7-21.1 24.3zm40.1-54.3h-76.1c6.6-28.2 10.5-58.8 11.5-90.4h90.2c-2.1 31.9-10.8 62.6-25.6 90.4z"></path>
    <path fill="var(--secondary-body-text-color)" d="M150.4 207c4.3-19.7 11.3-38.7 20.7-56.5h76.1c-4.2 18-7.3 36.9-9.3 56.5h30.2c2.1-19.7 5.4-38.7 10-56.5H356V207h30v-56.5h77.9c4.5 17.8 7.9 36.8 10 56.5h30.2c-1.9-19.6-5.1-38.5-9.3-56.5h76.1c9.4 17.8 16.3 36.7 20.7 56.5h30.7c-9.6-49.7-33.7-95.4-70.3-132C503.7 26.6 439.4 0 371 0S238.3 26.6 190 75c-36.6 36.6-60.7 82.3-70.3 132h30.7zM530.8 96.2c7.6 7.6 14.6 15.7 21.1 24.3h-65.4c-4.8-14.8-10.4-28.8-16.9-41.6-6.8-13.5-14.2-25.5-22.2-35.7 31 11.1 59.4 29 83.4 53zM386 32.6c20.7 6.9 40.8 27.8 56.7 59.7 4.4 8.8 8.4 18.2 12 28.2H386V32.6zm-30 0v87.9h-68.7c3.6-9.9 7.6-19.4 12-28.2 15.9-31.9 36-52.8 56.7-59.7zM211.2 96.2c24-24 52.4-41.9 83.4-53-8 10.2-15.5 22.1-22.2 35.7-6.4 12.8-12 26.8-16.9 41.6h-65.4c6.5-8.6 13.5-16.7 21.1-24.3z"></path>
    <path fill="var(--primary-color)" d="M.5 177h745v30H.5z"></path>
</svg>